<svg xmlns="http://www.w3.org/2000/svg" version="1.1" xmlns:xlink="http://www.w3.org/1999/xlink" xmlns:svgjs="http://svgjs.dev/svgjs" viewBox="0 0 800 800"><defs><linearGradient x1="50%" y1="0%" x2="50%" y2="100%" id="ffflurry-grad" gradientTransform="rotate(270)"><stop stop-color="rgba(0,0,0,0)" stop-opacity="1" offset="0%"></stop><stop stop-color="hsl(1.4, 100%, 67%)" stop-opacity="1" offset="45%"></stop><stop stop-color="hsl(167, 52%, 78%)" stop-opacity="1" offset="100%"></stop></linearGradient></defs><rect width="100%" height="100%" fill="rgba(0,0,0,0)"></rect><g fill="url(#ffflurry-grad)"><rect width="54" height="3" x="543" y="284.5" rx="1.5" transform="rotate(45, 570, 286)" opacity="0.45"></rect><rect width="812" height="3" x="-8" y="213.5" rx="1.5" transform="rotate(45, 398, 215)" opacity="0.51"></rect><rect width="175" height="3" x="221.5" y="106.5" rx="1.5" transform="rotate(45, 309, 108)" opacity="0.71"></rect><rect width="278" height="3" x="60" y="657.5" rx="1.5" transform="rotate(45, 199, 659)" opacity="0.53"></rect><rect width="226" height="3" x="209" y="701.5" rx="1.5" transform="rotate(45, 322, 703)" opacity="0.32"></rect><rect width="43" height="3" x="275.5" y="769.5" rx="1.5" transform="rotate(45, 297, 771)" opacity="0.30"></rect><rect width="593" height="3" x="391.5" y="602.5" rx="1.5" transform="rotate(45, 688, 604)" opacity="0.99"></rect><rect width="120" height="3" x="262" y="29.5" rx="1.5" transform="rotate(45, 322, 31)" opacity="0.73"></rect><rect width="447" height="3" x="442.5" y="767.5" rx="1.5" transform="rotate(45, 666, 769)" opacity="0.10"></rect><rect width="315" height="3" x="606.5" y="713.5" rx="1.5" transform="rotate(45, 764, 715)" opacity="0.51"></rect><rect width="598" height="3" x="262" y="61.5" rx="1.5" transform="rotate(45, 561, 63)" opacity="0.13"></rect><rect width="348" height="3" x="341" y="702.5" rx="1.5" transform="rotate(45, 515, 704)" opacity="0.21"></rect><rect width="275" height="3" x="453.5" y="745.5" rx="1.5" transform="rotate(45, 591, 747)" opacity="0.83"></rect><rect width="388" height="3" x="-87" y="48.5" rx="1.5" transform="rotate(45, 107, 50)" opacity="0.44"></rect><rect width="35" height="3" x="93.5" y="279.5" rx="1.5" transform="rotate(45, 111, 281)" opacity="0.90"></rect><rect width="219" height="3" x="6.5" y="349.5" rx="1.5" transform="rotate(45, 116, 351)" opacity="0.51"></rect><rect width="220" height="3" x="-81" y="543.5" rx="1.5" transform="rotate(45, 29, 545)" opacity="0.37"></rect><rect width="512" height="3" x="503" y="50.5" rx="1.5" transform="rotate(45, 759, 52)" opacity="0.44"></rect><rect width="548" height="3" x="225" y="589.5" rx="1.5" transform="rotate(45, 499, 591)" opacity="0.81"></rect><rect width="438" height="3" x="-185" y="301.5" rx="1.5" transform="rotate(45, 34, 303)" opacity="0.68"></rect><rect width="449" height="3" x="250.5" y="764.5" rx="1.5" transform="rotate(45, 475, 766)" opacity="0.64"></rect><rect width="441" height="3" x="-82.5" y="512.5" rx="1.5" transform="rotate(45, 138, 514)" opacity="0.98"></rect><rect width="502" height="3" x="126" y="321.5" rx="1.5" transform="rotate(45, 377, 323)" opacity="0.31"></rect><rect width="357" height="3" x="294.5" y="478.5" rx="1.5" transform="rotate(45, 473, 480)" opacity="0.88"></rect><rect width="80" height="3" x="548" y="464.5" rx="1.5" transform="rotate(45, 588, 466)" opacity="0.27"></rect><rect width="241" height="3" x="175.5" y="330.5" rx="1.5" transform="rotate(45, 296, 332)" opacity="0.61"></rect><rect width="132" height="3" x="53" y="126.5" rx="1.5" transform="rotate(45, 119, 128)" opacity="0.40"></rect><rect width="132" height="3" x="698" y="330.5" rx="1.5" transform="rotate(45, 764, 332)" opacity="0.25"></rect><rect width="263" height="3" x="-93.5" y="140.5" rx="1.5" transform="rotate(45, 38, 142)" opacity="0.88"></rect><rect width="198" height="3" x="290" y="759.5" rx="1.5" transform="rotate(45, 389, 761)" opacity="0.80"></rect><rect width="139" height="3" x="-25.5" y="438.5" rx="1.5" transform="rotate(45, 44, 440)" opacity="0.59"></rect><rect width="248" height="3" x="529" y="518.5" rx="1.5" transform="rotate(45, 653, 520)" opacity="0.99"></rect><rect width="592" height="3" x="-95" y="275.5" rx="1.5" transform="rotate(45, 201, 277)" opacity="0.93"></rect><rect width="46" height="3" x="171" y="164.5" rx="1.5" transform="rotate(45, 194, 166)" opacity="0.69"></rect><rect width="151" height="3" x="344.5" y="664.5" rx="1.5" transform="rotate(45, 420, 666)" opacity="0.72"></rect><rect width="642" height="3" x="358" y="77.5" rx="1.5" transform="rotate(45, 679, 79)" opacity="0.70"></rect><rect width="563" height="3" x="149.5" y="78.5" rx="1.5" transform="rotate(45, 431, 80)" opacity="0.55"></rect><rect width="517" height="3" x="400.5" y="423.5" rx="1.5" transform="rotate(45, 659, 425)" opacity="0.90"></rect><rect width="779" height="3" x="-317.5" y="635.5" rx="1.5" transform="rotate(45, 72, 637)" opacity="0.75"></rect><rect width="382" height="3" x="553" y="453.5" rx="1.5" transform="rotate(45, 744, 455)" opacity="0.12"></rect><rect width="475" height="3" x="448.5" y="696.5" rx="1.5" transform="rotate(45, 686, 698)" opacity="0.57"></rect><rect width="176" height="3" x="528" y="185.5" rx="1.5" transform="rotate(45, 616, 187)" opacity="0.66"></rect><rect width="496" height="3" x="-64" y="571.5" rx="1.5" transform="rotate(45, 184, 573)" opacity="0.97"></rect><rect width="433" height="3" x="543.5" y="542.5" rx="1.5" transform="rotate(45, 760, 544)" opacity="0.86"></rect><rect width="548" height="3" x="320" y="643.5" rx="1.5" transform="rotate(45, 594, 645)" opacity="0.21"></rect><rect width="212" height="3" x="137" y="126.5" rx="1.5" transform="rotate(45, 243, 128)" opacity="0.53"></rect><rect width="472" height="3" x="459" y="351.5" rx="1.5" transform="rotate(45, 695, 353)" opacity="0.15"></rect><rect width="262" height="3" x="6" y="209.5" rx="1.5" transform="rotate(45, 137, 211)" opacity="0.92"></rect><rect width="490" height="3" x="394" y="304.5" rx="1.5" transform="rotate(45, 639, 306)" opacity="0.25"></rect><rect width="432" height="3" x="294" y="190.5" rx="1.5" transform="rotate(45, 510, 192)" opacity="0.26"></rect><rect width="592" height="3" x="-87" y="357.5" rx="1.5" transform="rotate(45, 209, 359)" opacity="0.20"></rect><rect width="430" height="3" x="-176" y="369.5" rx="1.5" transform="rotate(45, 39, 371)" opacity="0.32"></rect><rect width="511" height="3" x="33.5" y="222.5" rx="1.5" transform="rotate(45, 289, 224)" opacity="0.86"></rect><rect width="188" height="3" x="485" y="377.5" rx="1.5" transform="rotate(45, 579, 379)" opacity="0.56"></rect><rect width="35" height="3" x="258.5" y="409.5" rx="1.5" transform="rotate(45, 276, 411)" opacity="0.22"></rect><rect width="467" height="3" x="-21.5" y="474.5" rx="1.5" transform="rotate(45, 212, 476)" opacity="0.78"></rect><rect width="159" height="3" x="621.5" y="225.5" rx="1.5" transform="rotate(45, 701, 227)" opacity="0.74"></rect><rect width="254" height="3" x="93" y="746.5" rx="1.5" transform="rotate(45, 220, 748)" opacity="0.38"></rect><rect width="97" height="3" x="393.5" y="378.5" rx="1.5" transform="rotate(45, 442, 380)" opacity="0.22"></rect><rect width="320" height="3" x="-77" y="510.5" rx="1.5" transform="rotate(45, 83, 512)" opacity="0.88"></rect><rect width="648" height="3" x="-199" y="750.5" rx="1.5" transform="rotate(45, 125, 752)" opacity="0.47"></rect><rect width="521" height="3" x="146.5" y="554.5" rx="1.5" transform="rotate(45, 407, 556)" opacity="0.61"></rect><rect width="334" height="3" x="-130" y="40.5" rx="1.5" transform="rotate(45, 37, 42)" opacity="0.87"></rect><rect width="91" height="3" x="718.5" y="641.5" rx="1.5" transform="rotate(45, 764, 643)" opacity="0.58"></rect><rect width="241" height="3" x="633.5" y="770.5" rx="1.5" transform="rotate(45, 754, 772)" opacity="0.48"></rect><rect width="412" height="3" x="166" y="451.5" rx="1.5" transform="rotate(45, 372, 453)" opacity="0.27"></rect><rect width="288" height="3" x="141" y="549.5" rx="1.5" transform="rotate(45, 285, 551)" opacity="0.83"></rect><rect width="58" height="3" x="17" y="227.5" rx="1.5" transform="rotate(45, 46, 229)" opacity="0.62"></rect><rect width="53" height="3" x="465.5" y="308.5" rx="1.5" transform="rotate(45, 492, 310)" opacity="0.43"></rect><rect width="202" height="3" x="473" y="548.5" rx="1.5" transform="rotate(45, 574, 550)" opacity="0.75"></rect><rect width="66" height="3" x="731" y="181.5" rx="1.5" transform="rotate(45, 764, 183)" opacity="1.00"></rect><rect width="503" height="3" x="273.5" y="426.5" rx="1.5" transform="rotate(45, 525, 428)" opacity="0.71"></rect><rect width="291" height="3" x="172.5" y="619.5" rx="1.5" transform="rotate(45, 318, 621)" opacity="0.67"></rect><rect width="650" height="3" x="-131" y="42.5" rx="1.5" transform="rotate(45, 194, 44)" opacity="0.23"></rect><rect width="303" height="3" x="140.5" y="478.5" rx="1.5" transform="rotate(45, 292, 480)" opacity="0.71"></rect><rect width="227" height="3" x="32.5" y="420.5" rx="1.5" transform="rotate(45, 146, 422)" opacity="0.22"></rect><rect width="105" height="3" x="-13.5" y="736.5" rx="1.5" transform="rotate(45, 39, 738)" opacity="0.11"></rect></g></svg>